# xmcd
#
# Track frame offsets:
#	150
#	16875
#	42675
#	64125
#	110100
#	152700
#	183900
#	215775
#
# Disc length: 3325 seconds
#
# Revision: 0
# Processed by: cddbd v1.5.2PL0 Copyright (c) Steve Scherf et al.
# Submitted via: EasyCDDAExtractor 9.0.0.1
#
DISCID=740cfb08
DTITLE=Black Sabbath - Tweeter Center Mansfield 15-07-05 Master Disc 1
DYEAR=2005
DGENRE=Hard Rock
TTITLE0=Intro Medley
TTITLE1=NIB
TTITLE2=After Forever
TTITLE3=War Pigs And Band Introduction
TTITLE4=Dirty Women
TTITLE5=Fairies Wear Boots
TTITLE6=Electric Funeral
TTITLE7=Iron Man 
EXTD=
EXTT0=
EXTT1=
EXTT2=
EXTT3=
EXTT4=
EXTT5=
EXTT6=
EXTT7=
PLAYORDER=
